<svg xmlns="http://www.w3.org/2000/svg" enable-background="new 0 0 64 64" viewBox="0 0 64 64"><path fill="#0171b9" d="M16.4,45.6h0.3h3.5l-0.9-11.6c0-0.3,0.1-0.5,0.2-0.7c0.2-0.2,0.4-0.3,0.7-0.3h23.6c0.3,0,0.5,0.1,0.7,0.3c0.2,0.2,0.3,0.4,0.2,0.7l-0.9,11.6h3.5h0.3h1.8h0.3v-7.4v-1.8v-3.7c0-3.6-2.9-6.6-6.6-6.6H39c-0.3,0-0.6-0.1-1-0.3c-0.4-0.2-0.7-0.5-0.9-0.9c-0.1-0.2-0.2-0.4-0.2-0.6c0.3-0.2,0.6-0.4,0.8-0.7c1.5-1.5,2.4-3.6,2.4-5.8v-4.8c1-0.2,1.9-0.7,2.7-1.4c0.9-0.9,1.4-2.1,1.5-3.4c0.1-1.4-0.4-2.7-1.4-3.7c-1-1.1-2.5-1.7-4-1.7h-9.1c-0.1,0-0.2,0-0.3,0c-0.2,0-0.3,0-0.5,0.1l-0.3,0c-4.2,0.7-7.5,4.5-7.8,9c-0.2,3.8,1.4,5.8,2.9,6.8c0.3,2.2,1.4,4.2,3.2,5.5c-0.1,0.2-0.1,0.4-0.2,0.6c-0.2,0.4-0.5,0.7-0.8,0.9L26,26l0,0c-0.3,0.1-0.6,0.2-0.9,0.2h-4.1c-3.6,0-6.6,2.9-6.6,6.6v3.7v1.8v7.4h0.3H16.4z M32,29.6l-4-2.2c0,0,0,0,0,0c0.3-0.4,0.8-0.8,1-1.2c0.1-0.2,0.1-0.4,0.2-0.5c0.9,0.4,1.9,0.6,2.8,0.6c1,0,1.9-0.2,2.8-0.6c0.1,0.2,0.1,0.3,0.2,0.5c0.1,0.4,0.7,0.8,1,1.2L32,29.6z M26.2,18.3c0-0.1,0-0.1,0-0.1v-4.9h11.6V18c0,1.6-0.6,3-1.7,4.1c-0.3,0.3-0.7,0.6-1.1,0.8c0,0,0,0,0,0c0,0,0,0,0,0c0,0,0,0,0,0h0l0,0C34,23.6,33,23.8,32,23.8c-1,0-2-0.3-2.9-0.8c0,0,0,0,0,0c0,0-0.1-0.1-0.1-0.1c0,0,0,0,0,0c0,0,0,0-0.1,0l0,0l0,0h0C27.3,21.9,26.3,20.2,26.2,18.3z"/><path fill="#0171b9" d="M42,45.6l0.8-10.7H21.2L22,45.6H42z M37.3,38.6l-0.4,3.3h-9.8l-0.4-3.3H37.3z"/><path fill="#2c3a45" d="M63,36.5H51.5v9.2h1.9c0.5,0,0.9,0.4,0.9,0.9c0,0.5-0.4,0.9-0.9,0.9h-4.1h-1.5H16.3h-1.5h-4.1c-0.5,0-0.9-0.4-0.9-0.9c0-0.5,0.4-0.9,0.9-0.9h1.9v-9.2H1c-0.5,0-1,0.4-1,0.9V60C0,60.5,0.4,61,1,61H63c0.5,0,1-0.4,1-0.9V37.4C64,36.9,63.6,36.5,63,36.5z M20.9,57.1l-2-1.1l-2,1.1l0.4-2.2l-1.6-1.6l2.2-0.3l1-2l1,2l2.2,0.3l-1.6,1.6L20.9,57.1z M34,57.1l-2-1.1l-2,1.1l0.4-2.2l-1.6-1.6L31,53l1-2l1,2l2.2,0.3l-1.6,1.6L34,57.1z M47.2,57.1l-2-1.1l-2,1.1l0.4-2.2l-1.6-1.6l2.2-0.3l1-2l1,2l2.2,0.3l-1.6,1.6L47.2,57.1z"/></svg>